# xmcd
#
# Track frame offsets:
#        150
#        22767
#        42795
#        66192
#        85922
#        108297
#        127175
#        146267
#        171082
#        196457
#        218597
#
# Disc length: 3168 seconds
#
# Revision: 0
# Processed by: cddbd v1.5.1PL0 Copyright (c) Steve Scherf et al.
# Submitted via: ExactAudioCopy v0.95a5
#
DISCID=900c5e0b
DTITLE=Harmony Innocents - H. I....Naturally
DYEAR=1995
DGENRE=R&B
TTITLE0=That's What I Like
TTITLE1=Changes
TTITLE2=Love Combined
TTITLE3=Get Wit U
TTITLE4=Don't Fool Yourself
TTITLE5=Crazy Luv
TTITLE6=You're Falling
TTITLE7=Don't Tell Me That It's Over
TTITLE8=Music Box
TTITLE9=Natural High
TTITLE10=That's What I Like [Live]
EXTD=
EXTT0=
EXTT1=
EXTT2=
EXTT3=
EXTT4=
EXTT5=
EXTT6=
EXTT7=
EXTT8=
EXTT9=
EXTT10=
PLAYORDER=
